<svg xmlns="http://www.w3.org/2000/svg" xmlns:xlink="http://www.w3.org/1999/xlink" width="1357.671" height="794" viewBox="0 0 1357.671 794">
  <defs>
    <linearGradient id="linear-gradient" x1="0.835" y1="1.12" x2="0.834" y2="-0.193" gradientUnits="objectBoundingBox">
      <stop offset="0" stop-color="#39c9f1"/>
      <stop offset="1" stop-color="#78a9dc"/>
    </linearGradient>
    <linearGradient id="linear-gradient-2" x1="0.5" x2="0.126" y2="0.862" gradientUnits="objectBoundingBox">
      <stop offset="0" stop-color="#00e49e"/>
      <stop offset="1" stop-color="#54bbe8"/>
    </linearGradient>
    <linearGradient id="linear-gradient-3" x1="0.5" x2="0.126" y2="0.862" gradientUnits="objectBoundingBox">
      <stop offset="0" stop-color="#33ccf3"/>
      <stop offset="1" stop-color="#78a9dc"/>
    </linearGradient>
  </defs>
  <g id="blob" transform="translate(10307.171 -4520.5)">
    <path id="Intersection_8" data-name="Intersection 8" d="M.678,859.757v-793h848.4c-10.345,4.522-20.373,9.32-29.847,14.285-10.683,5.6-20.966,11.567-30.561,17.739a340.984,340.984,0,0,0-28.153,20.156A297.708,297.708,0,0,0,735.1,141.681a267.99,267.99,0,0,0-22.343,25.508,250.265,250.265,0,0,0-34.148,59.992,266.082,266.082,0,0,0-11.143,34.83,538.943,538.943,0,0,0-13.6,82.653A548.183,548.183,0,0,0,664.894,510.3a523.429,523.429,0,0,0,24.142,78.725,489.335,489.335,0,0,0,36.242,73.155c7.044,11.626,14.643,23,22.583,33.822,8.035,10.946,16.621,21.588,25.519,31.63A414.629,414.629,0,0,0,904.2,826.916a297.379,297.379,0,0,0,30.752,12.766,281.722,281.722,0,0,0,30.8,8.846,277.3,277.3,0,0,0,30.794,5.147,283.37,283.37,0,0,0,30.732,1.667,305,305,0,0,0,44.9-3.4,350.308,350.308,0,0,0,44.474-9.726,416.885,416.885,0,0,0,43.879-15.359c14.153-5.835,28.659-12.664,43.115-20.3,13.853-7.314,28.043-15.57,42.176-24.536,13.495-8.562,27.311-18.008,41.066-28.079,13.076-9.574,26.461-19.979,39.783-30.925,10.2-8.383,20.6-17.277,31.007-26.517v163.25Z" transform="translate(-10307.178 4454.744)" fill="#fff"/>
    <g id="Group_727" data-name="Group 727" transform="translate(-2628.506 5100.547)">
      <path id="Intersection_5" data-name="Intersection 5" d="M2406.257-3106.556a95.028,95.028,0,0,1-19.555-9.035q10.64-5.127,21.335-10.88,3.665-1.972,7.356-4.029a69.436,69.436,0,0,0,34.157,1.837,69.45,69.45,0,0,0,31.779-15.44,69.455,69.455,0,0,0,20.07-29.075,69.45,69.45,0,0,0,3.849-17.276q5.01-3.871,10.021-7.857,7.39-5.878,14.884-12.086a95.059,95.059,0,0,1-4.687,45.922,95.049,95.049,0,0,1-27.466,39.79,95.029,95.029,0,0,1-43.488,21.128,95.052,95.052,0,0,1-18.424,1.8A95.053,95.053,0,0,1,2406.257-3106.556Zm-491.578-86.661a224.656,224.656,0,0,1-99.812-55.661,224.652,224.652,0,0,1-59.513-97.563,224.648,224.648,0,0,1-3.815-114.219,224.652,224.652,0,0,1,52.871-101.318,224.671,224.671,0,0,1,51.8-42.181q-1.062,8.913-1.829,17.859a550.338,550.338,0,0,0-1.806,61.386q-1.735,1.794-3.417,3.643a164.164,164.164,0,0,0-38.634,74.036,164.158,164.158,0,0,0,2.788,83.463,164.184,164.184,0,0,0,43.488,71.293,164.186,164.186,0,0,0,72.937,40.673q4.031,1.036,8.1,1.863,5.143,7.633,10.536,14.981c8.034,10.946,16.621,21.588,25.519,31.631q7.475,8.436,15.315,16.409-9.287.772-18.608.772A224.586,224.586,0,0,1,1914.679-3193.217Z" transform="translate(-8879.506 3285.708)" fill="url(#linear-gradient)"/>
    </g>
    <path id="Intersection_6" data-name="Intersection 6" d="M152.087,274.5V249.1a88.313,88.313,0,0,0,15.38-163.171c-7.416-3.823-11.922-12.194-9.418-20.153l.7-2.22c2.5-7.958,11.04-12.464,18.625-8.986a120.855,120.855,0,0,1-.491,219.935Z" transform="translate(-10459.258 5010)" fill="url(#linear-gradient-2)"/>
    <path id="Intersection_7" data-name="Intersection 7" d="M126.883,224.293A120.853,120.853,0,0,1,62.8,126.765H95.473a88.313,88.313,0,0,0,175.631,0H303.78A120.852,120.852,0,0,1,186.764,238.213q-1.739.05-3.477.05A120.844,120.844,0,0,1,126.883,224.293Z" transform="translate(-10072.672 4393.735)" fill="url(#linear-gradient-3)"/>
  </g>
</svg>
