<svg id="Component_58_2" data-name="Component 58 – 2" xmlns="http://www.w3.org/2000/svg" width="45" height="45" viewBox="0 0 45 45">
  <rect id="Rectangle_752" data-name="Rectangle 752" width="45" height="45" rx="8" fill="#fccdfb"/>
  <g id="computer-laptop-gear-digital-data_analytics" data-name="computer-laptop-gear-digital-data analytics" transform="translate(5.034 5.033)">
    <path id="Path_5798" data-name="Path 5798" d="M5.962,7.792v2.974a.481.481,0,0,0,.481.481h4.329v-.962H6.924V7.792a1.443,1.443,0,1,0-.962,0Zm25.009,6.821a.481.481,0,0,0-.481-.481H23.906a1.146,1.146,0,0,1-.265,1.183l-.087.082,4.381,4.155a.488.488,0,0,1,.149.351v2.472a1.924,1.924,0,1,1-.962,0V20.11l-4.247-4.03-.341.341a1.149,1.149,0,0,1-1.616,0,.174.174,0,0,0-.192-.043,5.816,5.816,0,0,1-.712.293.176.176,0,0,0-.106.164,1.148,1.148,0,0,1-1.145,1.145h-.3v4.4a1.924,1.924,0,1,1-.962,0v-4.4h-.3a1.148,1.148,0,0,1-1.145-1.145.176.176,0,0,0-.106-.164,5.816,5.816,0,0,1-.712-.293.175.175,0,0,0-.192.043,1.149,1.149,0,0,1-1.616,0l-.341-.341L8.847,20.11v2.265a1.924,1.924,0,1,1-.962,0V19.9a.488.488,0,0,1,.149-.351L12.416,15.4l-.087-.082a1.146,1.146,0,0,1-.265-1.183H5.481A.481.481,0,0,0,5,14.613V27.6H30.971Zm-25.009.962a.481.481,0,0,1,.481-.481H7.886v.962H6.924v.962H5.962Zm24.047,1.443h-.962v-.962h-.962v-.962h1.443a.481.481,0,0,1,.481.481ZM17.985,14.132a3.367,3.367,0,1,0-3.367-3.367,3.367,3.367,0,0,0,3.367,3.367Zm0-5.771a2.4,2.4,0,1,1-2.4,2.4,2.4,2.4,0,0,1,2.4-2.4Z" transform="translate(-0.519 -0.513)" fill="#002053"/>
    <path id="Path_5799" data-name="Path 5799" d="M32.58,54.962,32.82,54H28.28l.24.962Z" transform="translate(-12.603 -25.953)" fill="#002053"/>
    <ellipse id="Ellipse_166" data-name="Ellipse 166" cx="1.699" cy="1.274" rx="1.699" ry="1.274" transform="translate(15.891 8.85)" fill="#002053"/>
    <path id="Path_5800" data-name="Path 5800" d="M19.183,11.214a1.128,1.128,0,0,1,1.073.755,4.4,4.4,0,0,0,.25.6,1.138,1.138,0,0,1-.226,1.294.177.177,0,0,0,0,.255l1.106,1.106a.177.177,0,0,0,.255,0,1.136,1.136,0,0,1,.808-.337,1.154,1.154,0,0,1,.486.111,4.4,4.4,0,0,0,.6.25,1.128,1.128,0,0,1,.755,1.073.183.183,0,0,0,.183.183h1.558a.183.183,0,0,0,.183-.183,1.128,1.128,0,0,1,.755-1.073,4.4,4.4,0,0,0,.6-.25,1.131,1.131,0,0,1,1.294.226.177.177,0,0,0,.255,0l1.106-1.106a.177.177,0,0,0,0-.255A1.138,1.138,0,0,1,30,12.57a4.4,4.4,0,0,0,.25-.6,1.128,1.128,0,0,1,1.073-.755.183.183,0,0,0,.183-.183V9.473a.183.183,0,0,0-.183-.183,1.128,1.128,0,0,1-1.073-.755,4.4,4.4,0,0,0-.25-.6,1.138,1.138,0,0,1,.226-1.294.177.177,0,0,0,0-.255L29.119,5.279a.177.177,0,0,0-.255,0,1.138,1.138,0,0,1-1.294.226,4.4,4.4,0,0,0-.6-.25,1.128,1.128,0,0,1-.755-1.073A.183.183,0,0,0,26.031,4H24.473a.183.183,0,0,0-.183.183,1.128,1.128,0,0,1-.755,1.073,4.4,4.4,0,0,0-.6.25,1.138,1.138,0,0,1-1.294-.226.177.177,0,0,0-.255,0L20.279,6.386a.177.177,0,0,0,0,.255,1.138,1.138,0,0,1,.226,1.294,4.4,4.4,0,0,0-.25.6,1.128,1.128,0,0,1-1.073.755A.183.183,0,0,0,19,9.473v1.558a.183.183,0,0,0,.183.183Zm6.07-5.29a4.329,4.329,0,1,1-4.329,4.329,4.329,4.329,0,0,1,4.329-4.329Z" transform="translate(-7.786)" fill="#002053"/>
    <circle id="Ellipse_167" data-name="Ellipse 167" cx="1.274" cy="1.274" r="1.274" transform="translate(6.548 22.439)" fill="#002053"/>
    <ellipse id="Ellipse_168" data-name="Ellipse 168" cx="0.849" cy="1.274" rx="0.849" ry="1.274" transform="translate(16.74 22.439)" fill="#002053"/>
    <path id="Path_5801" data-name="Path 5801" d="M21.208,54l-.39,1.558a.481.481,0,0,1-.467.366H15.543a.481.481,0,0,1-.467-.366L14.687,54H4v2.4a.481.481,0,0,0,.481.481H30.452a.481.481,0,0,0,.481-.481V54Z" transform="translate(0 -25.953)" fill="#002053"/>
    <ellipse id="Ellipse_169" data-name="Ellipse 169" cx="0.849" cy="1.274" rx="0.849" ry="1.274" transform="translate(26.083 22.439)" fill="#002053"/>
    <path id="Path_5802" data-name="Path 5802" d="M51.809,10.765V7.792a1.443,1.443,0,1,0-.962,0v2.493H47v.962h4.329A.481.481,0,0,0,51.809,10.765Z" transform="translate(-22.319 -0.513)" fill="#002053"/>
  </g>
</svg>
