<svg id="Component_57_2" data-name="Component 57 – 2" xmlns="http://www.w3.org/2000/svg" width="45" height="45" viewBox="0 0 45 45">
  <rect id="Rectangle_750" data-name="Rectangle 750" width="45" height="45" rx="8" fill="rgba(0,228,158,0.59)"/>
  <g id="health" transform="translate(7.753 7.753)">
    <path id="Path_5796" data-name="Path 5796" d="M26.061,3.706a8.069,8.069,0,0,0-6-2.706,7.984,7.984,0,0,0-5.318,2.041A7.984,7.984,0,0,0,9.429,1a8.069,8.069,0,0,0-6,2.706,9.717,9.717,0,0,0,0,12.864L14.07,28.2a.92.92,0,0,0,1.355,0L26.061,16.569A9.716,9.716,0,0,0,26.061,3.706ZM24.706,15.333,14.747,26.219,4.787,15.333a7.848,7.848,0,0,1,0-10.389,6.16,6.16,0,0,1,9.283,0,.948.948,0,0,0,1.355,0,6.161,6.161,0,0,1,9.283,0A7.848,7.848,0,0,1,24.706,15.333Z" fill="#002053"/>
    <path id="Path_5797" data-name="Path 5797" d="M22.58,12.666H20.289l-2.474-3.3a.917.917,0,0,0-1.553.14l-3,6.006-1.86-2.48a.916.916,0,0,0-.733-.367H7.916a.916.916,0,0,0,0,1.833h2.291l2.474,3.3a.917.917,0,0,0,.733.367c.027,0,.055,0,.082,0a.919.919,0,0,0,.738-.5l3-6.006,1.86,2.48a.915.915,0,0,0,.733.367H22.58a.916.916,0,0,0,0-1.833Z" transform="translate(-0.501 -0.668)" fill="#002053"/>
  </g>
</svg>
