<svg id="Component_59_2" data-name="Component 59 – 2" xmlns="http://www.w3.org/2000/svg" width="45" height="45" viewBox="0 0 45 45">
  <rect id="Rectangle_751" data-name="Rectangle 751" width="45" height="45" rx="8" fill="rgba(0,68,255,0.56)"/>
  <path id="digital" d="M24,9a.938.938,0,0,0-.314,1.823v1.168l-1.891,1.568.006,5.478H19.919v-3.6l-3.137-2.509V11.45a.941.941,0,1,0-.627,0v1.778l3.137,2.509v3.3H17.723V16.308l-2.247-1.686a.915.915,0,0,0,.051-.29.941.941,0,1,0-.941.941.93.93,0,0,0,.507-.152l2,1.5v2.415H12.077a1.572,1.572,0,0,0-1.568,1.568V34.719h-2.2A.314.314,0,0,0,8,35.033v1.255a2.2,2.2,0,0,0,2.2,2.2H35.915a2.2,2.2,0,0,0,2.2-2.2V35.033a.314.314,0,0,0-.314-.314H35.6V20.605a1.572,1.572,0,0,0-1.568-1.568H28.7V16.622L30.865,15a.938.938,0,1,0-.282-.668c0,.03.006.058.009.087l-2.518,1.889v2.729H26.819v-3.3l3.137-2.509V11.45a.941.941,0,1,0-.627,0v1.476l-3.137,2.509v3.6H24.311l.016-4.237,2.194-1.644a.932.932,0,0,0,.611.235.941.941,0,1,0-.941-.941.912.912,0,0,0,.016.157L23.7,14.485l-.016,4.552H22.426l-.006-5.184,1.891-1.568V10.823A.938.938,0,0,0,24,9Zm0,.627a.314.314,0,1,1-.314.314A.309.309,0,0,1,24,9.627Zm-7.528.627a.314.314,0,1,1-.314.314A.309.309,0,0,1,16.469,10.255Zm13.173,0a.314.314,0,1,1-.314.314A.309.309,0,0,1,29.642,10.255Zm-2.509,1.882a.314.314,0,1,1-.314.314A.309.309,0,0,1,27.133,12.137ZM14.587,14.018a.314.314,0,1,1-.314.314A.309.309,0,0,1,14.587,14.018Zm16.937,0a.314.314,0,1,1-.314.314A.309.309,0,0,1,31.524,14.018ZM12.077,19.664H34.033a.932.932,0,0,1,.941.941V34.719H11.137V20.605A.932.932,0,0,1,12.077,19.664Zm.627,1.255a.314.314,0,0,0-.314.314V33.151a.314.314,0,0,0,.314.314h20.7a.314.314,0,0,0,.314-.314V21.232a.314.314,0,0,0-.314-.314Zm.314.627H17.1v1.789l-2,1.5a.93.93,0,0,0-.508-.153.941.941,0,1,0,.941.941.922.922,0,0,0-.051-.29l2.247-1.685v-2.1h1.568v2.672l-3.137,2.509V28.5a.941.941,0,1,0,.627,0V27.029l3.137-2.509V21.546h1.876L21.8,26.1l-1.676,1.252a.931.931,0,0,0-.519-.159.941.941,0,1,0,.941.941.921.921,0,0,0-.048-.279l1.93-1.44-.006-4.868H23.7l-.016,5.479,1.891,1.568v1.163a.939.939,0,1,0,.627,0V28.3l-1.889-1.567.015-5.185h1.866v3.237l3.137,2.2V28.5a.941.941,0,1,0,.627,0V26.653l-3.137-2.2V21.546h1.255v2.039L30.61,25.41a.925.925,0,0,0-.027.213.941.941,0,1,0,.941-.941.93.93,0,0,0-.565.195l-2.232-1.606V21.546h4.365V32.838H13.018Zm1.568,3.764a.314.314,0,1,1-.314.314A.309.309,0,0,1,14.587,25.31Zm16.937,0a.314.314,0,1,1-.314.314A.309.309,0,0,1,31.524,25.31ZM19.605,27.819a.314.314,0,1,1-.314.314A.309.309,0,0,1,19.605,27.819Zm-3.137,1.255a.314.314,0,1,1-.314.314A.309.309,0,0,1,16.469,29.074Zm13.173,0a.314.314,0,1,1-.314.314A.309.309,0,0,1,29.642,29.074Zm-3.764,1.255a.314.314,0,1,1-.314.314A.309.309,0,0,1,25.878,30.328ZM8.627,35.347h10.7A1.574,1.574,0,0,0,20.86,36.6h5.018a1.575,1.575,0,0,0,1.536-1.255H37.483v.941a1.558,1.558,0,0,1-1.568,1.568H10.2a1.558,1.558,0,0,1-1.568-1.568Zm11.42,0H26.69a.88.88,0,0,1-.812.627H20.86A.88.88,0,0,1,20.047,35.347Z" transform="translate(-0.555 -1.242)" fill="#002053" fill-rule="evenodd"/>
</svg>
