<svg id="linkedin" xmlns="http://www.w3.org/2000/svg" width="32" height="31.999" viewBox="0 0 32 31.999">
  <path id="Path_5462" data-name="Path 5462" d="M16,0A16,16,0,1,0,32,16,16,16,0,0,0,16,0Z" fill="#00e49e"/>
  <path id="Path_5463" data-name="Path 5463" d="M24.294,22.942V16.805c0-3.288-1.755-4.818-4.1-4.818a3.529,3.529,0,0,0-3.206,1.768V12.238H13.434c.047,1.005,0,10.7,0,10.7h3.558V16.964a2.431,2.431,0,0,1,.117-.867,1.947,1.947,0,0,1,1.825-1.3c1.288,0,1.8.981,1.8,2.42v5.727h3.557ZM9.685,10.777a1.855,1.855,0,1,0,.023-3.7,1.855,1.855,0,1,0-.045,3.7Zm1.779,12.165v-10.7H7.907v10.7h3.557Z" transform="translate(0 0)" fill="#002053"/>
</svg>
