<svg id="twitter" xmlns="http://www.w3.org/2000/svg" width="32" height="32" viewBox="0 0 32 32">
  <circle id="Ellipse_119" data-name="Ellipse 119" cx="16" cy="16" r="16" fill="#00e49e"/>
  <path id="Path_5464" data-name="Path 5464" d="M252.39,145.272a8.3,8.3,0,0,1-2.389.655,4.171,4.171,0,0,0,1.829-2.3,8.31,8.31,0,0,1-2.642,1.009,4.161,4.161,0,0,0-7.195,2.846,4.206,4.206,0,0,0,.107.948,11.81,11.81,0,0,1-8.573-4.345,4.163,4.163,0,0,0,1.287,5.553,4.141,4.141,0,0,1-1.884-.52v.053a4.161,4.161,0,0,0,3.336,4.078,4.138,4.138,0,0,1-1.1.146,4.223,4.223,0,0,1-.783-.073,4.164,4.164,0,0,0,3.885,2.888,8.375,8.375,0,0,1-6.158,1.722,11.828,11.828,0,0,0,18.21-9.964q0-.271-.013-.538A8.474,8.474,0,0,0,252.39,145.272Z" transform="translate(-226.534 -135.372)" fill="#002053"/>
</svg>
